<svg width="13" height="13" viewBox="0 0 13 13" fill="none" xmlns="http://www.w3.org/2000/svg">
<path d="M12.1065 2.01869C12.2102 1.92188 12.2929 1.80607 12.3498 1.678C12.4067 1.54993 12.4367 1.41217 12.438 1.27276C12.4394 1.13336 12.412 0.995089 12.3575 0.866032C12.303 0.736975 12.2225 0.619712 12.1207 0.521085C12.0189 0.422458 11.8978 0.344443 11.7645 0.29159C11.6312 0.238738 11.4884 0.212108 11.3443 0.213253C11.2003 0.214399 11.0579 0.243296 10.9255 0.298261C10.7932 0.353226 10.6734 0.433156 10.5733 0.533388L6.22519 4.74011L1.87854 0.533388C1.77923 0.430234 1.65946 0.347496 1.52638 0.290111C1.39331 0.232726 1.24965 0.201869 1.10399 0.199382C0.958327 0.196895 0.813639 0.222828 0.678555 0.275634C0.543472 0.32844 0.420762 0.407037 0.317747 0.506737C0.214731 0.606436 0.133519 0.725195 0.0789568 0.855929C0.0243945 0.986664 -0.00240124 1.1267 0.000168832 1.26767C0.0027389 1.40865 0.034622 1.54767 0.0939157 1.67646C0.153209 1.80526 0.238699 1.92117 0.345285 2.01729L4.68904 6.22541L0.342392 10.4321C0.150764 10.6312 0.0464391 10.8944 0.0513979 11.1664C0.0563567 11.4384 0.170212 11.6979 0.368976 11.8903C0.56774 12.0827 0.835893 12.1929 1.11694 12.1977C1.398 12.2025 1.67 12.1015 1.87565 11.916L6.22519 7.70931L10.5718 11.9174C10.7775 12.1029 11.0495 12.2039 11.3305 12.1991C11.6116 12.1943 11.8797 12.0841 12.0785 11.8917C12.2773 11.6993 12.3911 11.4398 12.3961 11.1678C12.401 10.8958 12.2967 10.6326 12.1051 10.4335L7.76134 6.22541L12.1065 2.01869Z" fill="#3D3D3D"/>
</svg>
