<svg width="13" height="13" viewBox="0 0 13 13" fill="none" xmlns="http://www.w3.org/2000/svg">
<path d="M8.54094 6.73336C8.54094 7.72336 7.74094 8.52336 6.75094 8.52336C5.76094 8.52336 4.96094 7.72336 4.96094 6.73336C4.96094 5.74336 5.76094 4.94336 6.75094 4.94336C7.74094 4.94336 8.54094 5.74336 8.54094 6.73336Z" stroke="black" stroke-width="1.5" stroke-linecap="round" stroke-linejoin="round"/>
<path d="M6.75187 10.8668C8.51687 10.8668 10.1619 9.8268 11.3069 8.0268C11.7569 7.3218 11.7569 6.1368 11.3069 5.4318C10.1619 3.6318 8.51687 2.5918 6.75187 2.5918C4.98687 2.5918 3.34187 3.6318 2.19687 5.4318C1.74687 6.1368 1.74687 7.3218 2.19687 8.0268C3.34187 9.8268 4.98687 10.8668 6.75187 10.8668Z" stroke="black" stroke-width="1.5" stroke-linecap="round" stroke-linejoin="round"/>
</svg>
