<svg width="555" height="244" viewBox="0 0 555 244" fill="none" xmlns="http://www.w3.org/2000/svg">
<path d="M311.6 86C297 86 284.6 91 276.2 101.2V87.2H252.4V232.8H277.4V181C286 190.8 298 195.4 311.6 195.4C342.8 195.4 365.8 173.8 365.8 140.6C365.8 107.6 342.8 86 311.6 86ZM308.8 174C290.8 174 277 161 277 140.6C277 120.2 290.8 107.2 308.8 107.2C326.8 107.2 340.4 120.2 340.4 140.6C340.4 161 326.8 174 308.8 174ZM428.709 86C415.109 86 403.109 90.6 394.509 100.2V45.6H369.509V194H393.309V180.2C401.709 190.4 414.109 195.4 428.709 195.4C459.909 195.4 482.909 173.8 482.909 140.6C482.909 107.4 459.909 86 428.709 86ZM425.909 174C407.909 174 394.109 161 394.109 140.6C394.109 120.2 407.909 107.2 425.909 107.2C443.909 107.2 457.509 120.2 457.509 140.6C457.509 161 443.909 174 425.909 174ZM510.419 102.8V87.2H486.619V194H511.619V142.2C511.619 120.4 523.619 109.2 542.619 109.2C544.419 109.2 546.219 109.4 548.419 109.8V86C530.619 86 517.619 91.6 510.419 102.8Z" fill="white" fill-opacity="0.05"/>
<path d="M293.88 221H303.8V218.8H296.48V207H293.88V221ZM311.353 221H313.953V207H311.353V221ZM333.459 209.18V207H323.239V221H325.839V215.64H332.599V213.44H325.839V209.18H333.459ZM344.074 218.82V214.96H350.834V212.82H344.074V209.18H351.694V207H341.474V221H351.974V218.82H344.074ZM375.74 221.2C379.58 221.2 381.4 219.28 381.4 217.04C381.4 211.9 373.1 213.84 373.1 210.86C373.1 209.8 373.98 208.96 376.14 208.96C377.36 208.96 378.74 209.32 380 210.06L380.82 208.04C379.6 207.24 377.84 206.8 376.16 206.8C372.32 206.8 370.52 208.72 370.52 210.98C370.52 216.18 378.84 214.2 378.84 217.22C378.84 218.26 377.92 219.04 375.74 219.04C374.02 219.04 372.24 218.4 371.12 217.5L370.22 219.52C371.38 220.52 373.56 221.2 375.74 221.2ZM395.958 221.2C398.258 221.2 400.218 220.38 401.518 218.86L399.838 217.26C398.818 218.38 397.558 218.92 396.098 218.92C393.198 218.92 391.098 216.88 391.098 214C391.098 211.12 393.198 209.08 396.098 209.08C397.558 209.08 398.818 209.62 399.838 210.72L401.518 209.14C400.218 207.62 398.258 206.8 395.978 206.8C391.678 206.8 388.478 209.82 388.478 214C388.478 218.18 391.678 221.2 395.958 221.2ZM409.509 221H412.109V207H409.509V221ZM423.996 218.82V214.96H430.756V212.82H423.996V209.18H431.616V207H421.396V221H431.896V218.82H423.996ZM450.154 207V216.48L442.434 207H440.294V221H442.874V211.52L450.594 221H452.734V207H450.154ZM468.465 221.2C470.765 221.2 472.725 220.38 474.025 218.86L472.345 217.26C471.325 218.38 470.065 218.92 468.605 218.92C465.705 218.92 463.605 216.88 463.605 214C463.605 211.12 465.705 209.08 468.605 209.08C470.065 209.08 471.325 209.62 472.345 210.72L474.025 209.14C472.725 207.62 470.765 206.8 468.485 206.8C464.185 206.8 460.985 209.82 460.985 214C460.985 218.18 464.185 221.2 468.465 221.2ZM484.617 218.82V214.96H491.377V212.82H484.617V209.18H492.237V207H482.017V221H492.517V218.82H484.617ZM505.255 221.2C509.095 221.2 510.915 219.28 510.915 217.04C510.915 211.9 502.615 213.84 502.615 210.86C502.615 209.8 503.495 208.96 505.655 208.96C506.875 208.96 508.255 209.32 509.515 210.06L510.335 208.04C509.115 207.24 507.355 206.8 505.675 206.8C501.835 206.8 500.035 208.72 500.035 210.98C500.035 216.18 508.355 214.2 508.355 217.22C508.355 218.26 507.435 219.04 505.255 219.04C503.535 219.04 501.755 218.4 500.635 217.5L499.735 219.52C500.895 220.52 503.075 221.2 505.255 221.2Z" fill="white" fill-opacity="0.05"/>
<g clip-path="url(#clip0_4305_7360)">
<path d="M22.9366 154.5C35.6041 154.5 45.8732 144.231 45.8732 131.564C45.8732 118.896 35.6041 108.627 22.9366 108.627C10.2691 108.627 0 118.896 0 131.564C0 144.231 10.2691 154.5 22.9366 154.5Z" fill="white" fill-opacity="0.05"/>
<path d="M81.3797 157.847C89.0884 157.847 95.3376 151.598 95.3376 143.889C95.3376 136.181 89.0884 129.932 81.3797 129.932C73.671 129.932 67.4219 136.181 67.4219 143.889C67.4219 151.598 73.671 157.847 81.3797 157.847Z" fill="white" fill-opacity="0.05"/>
<path d="M94.6843 108.708C111.725 108.708 125.539 94.8945 125.539 77.8542C125.539 60.8139 111.725 47 94.6843 47C77.644 47 63.8301 60.8139 63.8301 77.8542C63.8301 94.8945 77.644 108.708 94.6843 108.708Z" fill="white" fill-opacity="0.05"/>
<path d="M67.4226 232.289C84.4629 232.289 98.2768 218.475 98.2768 201.434C98.2768 184.394 84.4629 170.58 67.4226 170.58C50.3823 170.58 36.5684 184.394 36.5684 201.434C36.5684 218.475 50.3823 232.289 67.4226 232.289Z" fill="white" fill-opacity="0.05"/>
<path d="M163.087 215.392C191.803 215.392 215.082 192.113 215.082 163.397C215.082 134.681 191.803 111.402 163.087 111.402C134.371 111.402 111.092 134.681 111.092 163.397C111.092 192.113 134.371 215.392 163.087 215.392Z" fill="white" fill-opacity="0.05"/>
</g>
<defs>
<clipPath id="clip0_4305_7360">
<rect width="215" height="185.289" fill="white" transform="translate(0 47)"/>
</clipPath>
</defs>
</svg>
