<svg width="29" height="30" viewBox="0 0 29 30" fill="none" xmlns="http://www.w3.org/2000/svg">
<path fill-rule="evenodd" clip-rule="evenodd" d="M14.25 0C10.4707 0 6.84612 1.58035 4.17373 4.3934C1.50133 7.20644 0 11.0218 0 15C0 18.9782 1.50133 22.7936 4.17373 25.6066C6.84612 28.4196 10.4707 30 14.25 30C18.0293 30 21.6539 28.4196 24.3263 25.6066C26.9987 22.7936 28.5 18.9782 28.5 15C28.5 11.0218 26.9987 7.20644 24.3263 4.3934C21.6539 1.58035 18.0293 0 14.25 0ZM19.5836 9.38571C19.7171 9.52666 19.8107 9.70396 19.8538 9.89775C19.897 10.0915 19.888 10.2941 19.8279 10.4829L16.074 22.3371C16.0126 22.5316 15.8996 22.7035 15.7482 22.8323C15.5969 22.9612 15.4136 23.0417 15.2201 23.0642C15.0266 23.0868 14.831 23.0505 14.6566 22.9596C14.4821 22.8687 14.3361 22.727 14.2357 22.5514L11.5527 17.8371L7.07818 15.015C6.9113 14.9096 6.77664 14.756 6.69014 14.5725C6.60365 14.389 6.56895 14.1832 6.59016 13.9796C6.61137 13.7759 6.6876 13.5829 6.80981 13.4235C6.93203 13.2641 7.0951 13.1449 7.27971 13.08L18.5413 9.12857C18.7206 9.0653 18.913 9.05584 19.0971 9.10126C19.2812 9.14667 19.4497 9.24518 19.5836 9.38571Z" fill="white"/>
</svg>
