<svg width="473" height="74" viewBox="0 0 473 74" fill="none" xmlns="http://www.w3.org/2000/svg">
<rect x="38.7071" y="26.0703" width="24.555" height="24.555" rx="5.1226" transform="rotate(-45 38.7071 26.0703)" fill="white" stroke="#1567E0"/>
<path d="M56.5273 22.5224H57.4457V31.5879H56.2649V24.8052C55.7139 25.3299 55.1891 25.3299 54.3757 25.3299V24.4772C55.9632 24.4772 56.3961 23.7031 56.5273 22.5224Z" fill="#1567E0"/>
<path d="M25.457 69.9395H29.3982C32.3959 69.9395 34.2372 68.0069 34.2372 64.507C34.2372 61.0071 32.3959 59.0593 29.3982 59.0593H25.457V69.9395ZM26.8265 60.2767H29.3982C32.1677 60.2767 32.8676 62.3766 32.8676 64.507C32.8676 66.6374 32.1677 68.7221 29.3982 68.7221H26.8265V60.2767ZM38.9787 69.0873C37.2896 69.0873 36.4527 67.7786 36.4527 66.3787H42.5851C42.5851 63.6244 41.3982 61.9658 38.9634 61.9658C36.6961 61.9658 35.2353 63.4723 35.2353 66.0591C35.2353 68.4938 36.6657 70.1525 39.0243 70.1525C40.9569 70.1525 42.0677 68.996 42.4633 67.5504H41.246C41.109 68.083 40.5308 69.0873 38.9787 69.0873ZM38.9634 63.031C40.4243 63.031 41.3677 64.0657 41.3677 65.3135H36.4527C36.4527 64.0657 37.5026 63.031 38.9634 63.031ZM43.836 59.0593V69.9395H45.0533V59.0593H43.836ZM47.3895 60.6723C47.7395 60.6723 48.1503 60.4137 48.1503 59.9419C48.1503 59.4702 47.7395 59.2115 47.3895 59.2115C47.0547 59.2115 46.6286 59.4702 46.6286 59.9419C46.6286 60.4137 47.0547 60.6723 47.3895 60.6723ZM46.7808 62.1788V69.9395H47.9981V62.1788H46.7808ZM49.0171 62.1788L51.8018 69.9395H53.1865L55.9712 62.1788H54.6473L52.5018 68.7221H52.4865L50.341 62.1788H49.0171ZM59.9911 69.0873C58.302 69.0873 57.4651 67.7786 57.4651 66.3787H63.5975C63.5975 63.6244 62.4106 61.9658 59.9759 61.9658C57.7086 61.9658 56.2477 63.4723 56.2477 66.0591C56.2477 68.4938 57.6781 70.1525 60.0368 70.1525C61.9693 70.1525 63.0801 68.996 63.4758 67.5504H62.2584C62.1215 68.083 61.5432 69.0873 59.9911 69.0873ZM59.9759 63.031C61.4367 63.031 62.3802 64.0657 62.3802 65.3135H57.4651C57.4651 64.0657 58.5151 63.031 59.9759 63.031ZM68.1961 61.9658C67.0853 61.9658 66.4614 62.6962 66.0505 63.7157H66.0201V62.1788H64.8027V69.9395H66.0201V65.8004C66.0201 64.1418 67.1918 62.9549 68.8809 63.2288H68.9113V62.0114C68.6983 61.981 68.4852 61.9658 68.1961 61.9658ZM76.5924 62.1788H75.2229L72.986 68.5091H72.9556L70.5817 62.1788H69.2122L72.1491 69.3003C72.4534 70.0612 72.1339 70.7155 71.8143 71.0655C71.4034 71.5068 70.9317 71.5524 70.2622 71.4916H70.0796V72.4046C70.2774 72.4655 70.6274 72.5568 71.1143 72.5568C72.5447 72.5568 72.9404 71.4155 73.2751 70.5786L76.5924 62.1788Z" fill="#4F4F4F"/>
<g style="mix-blend-mode:exclusion" opacity="0.2" filter="url(#filter0_f_3618_17074)">
<g style="mix-blend-mode:color-burn">
<rect x="223.148" y="25.457" width="25.555" height="25.555" rx="5.6226" transform="rotate(-45 223.148 25.457)" fill="#0E6FB5"/>
</g>
<path d="M241.676 21.9091C241.545 23.0899 241.112 23.8639 239.524 23.8639V24.7167C240.338 24.7167 240.862 24.7167 241.413 24.1919V30.9746H242.594V21.9091H241.676Z" fill="white"/>
</g>
<g style="mix-blend-mode:exclusion" filter="url(#filter1_f_3618_17074)">
<g style="mix-blend-mode:color-burn">
<rect x="411.891" y="25.457" width="25.555" height="25.555" rx="5.6226" transform="rotate(-45 411.891 25.457)" fill="#0E6FB5"/>
</g>
<path d="M430.418 21.9091C430.287 23.0899 429.854 23.8639 428.266 23.8639V24.7167C429.08 24.7167 429.605 24.7167 430.156 24.1919V30.9746H431.336V21.9091H430.418Z" fill="white"/>
</g>
<path d="M226.511 29.0966C224.501 27.0865 224.501 23.8276 226.511 21.8175L236.63 11.699C238.64 9.6889 241.899 9.6889 243.909 11.699L254.027 21.8175C256.037 23.8276 256.037 27.0865 254.027 29.0966L243.909 39.2151C241.899 41.2252 238.64 41.2252 236.63 39.2151L226.511 29.0966Z" fill="white" stroke="#1567E0" stroke-width="0.951058"/>
<path d="M239.03 25.084H237.849C237.849 23.2079 238.872 21.7254 241.116 21.7254C242.664 21.7254 244.002 22.7094 244.002 24.4412C244.002 27.5504 239.581 27.7341 239.016 29.8988V29.9251H243.871V30.9746H237.586C237.586 29.3347 238.623 28.049 240.289 27.0781C241.981 26.0942 242.821 25.7793 242.821 24.4543C242.821 23.6933 242.48 22.775 241.089 22.775C239.502 22.775 239.03 23.8377 239.03 25.084Z" fill="#1567E0"/>
<path opacity="0.6" d="M212.965 69.9395H214.334V65.3896H217.287C219.28 65.3896 220.817 64.507 220.817 62.2245C220.817 59.9419 219.28 59.0593 217.287 59.0593H212.965V69.9395ZM214.334 60.2767H217.439C218.793 60.2767 219.447 60.9006 219.447 62.2245C219.447 63.5483 218.793 64.1722 217.439 64.1722H214.334V60.2767ZM226.402 64.157C226.402 64.9331 225.808 65.1005 224.5 65.3439C222.491 65.7244 221.182 66.1809 221.182 67.946C221.182 69.2547 222.171 70.1525 223.739 70.1525C225.017 70.1525 225.884 69.696 226.371 68.9656H226.402C226.615 69.8177 227.056 70.0155 227.786 70.0155C228.015 70.0155 228.182 70.0003 228.502 69.8938V69.0417C227.726 69.133 227.619 68.7982 227.619 68.1895V64.4157C227.619 62.544 226.295 61.9658 224.819 61.9658C222.567 61.9658 221.639 63.0918 221.563 64.5831H222.78C222.856 63.457 223.343 63.031 224.819 63.031C226.067 63.031 226.402 63.5483 226.402 64.157ZM223.86 69.0873C222.856 69.0873 222.4 68.646 222.4 67.8852C222.4 66.9569 223.1 66.5765 224.606 66.257C225.428 66.0896 226.173 65.8765 226.402 65.6483V66.9417C226.402 68.433 225.306 69.0873 223.86 69.0873ZM235.836 62.1788H234.467L232.23 68.5091H232.199L229.825 62.1788H228.456L231.393 69.3003C231.697 70.0612 231.378 70.7155 231.058 71.0655C230.647 71.5068 230.175 71.5524 229.506 71.4916H229.323V72.4046C229.521 72.4655 229.871 72.5568 230.358 72.5568C231.788 72.5568 232.184 71.4155 232.519 70.5786L235.836 62.1788ZM244.818 61.9658C243.646 61.9658 242.84 62.5745 242.307 63.3049H242.277C241.957 62.4375 241.318 61.9658 240.207 61.9658C239.036 61.9658 238.366 62.5592 237.955 63.1071H237.925V62.1788H236.707V69.9395H237.925V65.1005C237.925 63.8983 238.686 63.031 239.903 63.031C241.12 63.031 241.318 63.8222 241.318 64.8266V69.9395H242.536V65.1005C242.536 63.8983 243.296 63.031 244.514 63.031C245.731 63.031 245.929 63.8222 245.929 64.8266V69.9395H247.146V64.5222C247.146 62.894 246.385 61.9658 244.818 61.9658ZM252.076 69.0873C250.387 69.0873 249.55 67.7786 249.55 66.3787H255.682C255.682 63.6244 254.496 61.9658 252.061 61.9658C249.794 61.9658 248.333 63.4723 248.333 66.0591C248.333 68.4938 249.763 70.1525 252.122 70.1525C254.054 70.1525 255.165 68.996 255.561 67.5504H254.343C254.206 68.083 253.628 69.0873 252.076 69.0873ZM252.061 63.031C253.522 63.031 254.465 64.0657 254.465 65.3135H249.55C249.55 64.0657 250.6 63.031 252.061 63.031ZM260.692 61.9658C259.368 61.9658 258.546 62.5592 258.135 63.1071H258.105V62.1788H256.888V69.9395H258.105V65.1005C258.105 63.8983 259.018 63.031 260.388 63.031C261.605 63.031 262.077 63.8222 262.077 64.8266V69.9395H263.294V64.5222C263.294 62.7418 262.107 61.9658 260.692 61.9658ZM268.157 63.244V62.1788H266.635V59.5919H265.418V62.1788H264.276V63.244H265.418V68.0373C265.418 69.6199 266.209 70.0308 267.244 70.0308C267.563 70.0308 267.883 70.0003 268.157 69.9395V68.8743C267.122 68.9504 266.635 68.7982 266.635 67.9156V63.244H268.157Z" fill="#4F4F4F"/>
<g style="mix-blend-mode:exclusion" opacity="0.2" filter="url(#filter2_f_3618_17074)">
<g style="mix-blend-mode:color-burn">
<rect x="412.41" y="25.457" width="25.555" height="25.555" rx="5.6226" transform="rotate(-45 412.41 25.457)" fill="#0E6FB5"/>
</g>
<path d="M430.937 21.9091C430.806 23.0899 430.373 23.8639 428.786 23.8639V24.7167C429.599 24.7167 430.124 24.7167 430.675 24.1919V30.9746H431.856V21.9091H430.937Z" fill="white"/>
</g>
<rect x="413.083" y="25.457" width="24.6039" height="24.6039" rx="5.14707" transform="rotate(-45 413.083 25.457)" fill="#1567E0" stroke="#1567E0" stroke-width="0.951058"/>
<path d="M428.091 24.6248C428.091 23.7327 428.471 22.775 430.242 22.775C431.475 22.775 431.974 23.4966 431.974 24.2312C431.974 25.2808 431.265 25.7137 430.334 25.7137H429.416V26.7633H430.386C431.265 26.7633 432.302 27.0126 432.302 28.4294C432.302 29.5184 431.738 30.1087 430.177 30.1087C428.458 30.1087 427.854 29.2166 427.854 27.9047H426.674C426.674 29.9513 427.959 31.1583 430.268 31.1583C432.21 31.1583 433.483 30.2137 433.483 28.4294C433.483 27.3668 433.05 26.5403 431.764 26.186V26.1598C432.682 25.7924 433.155 25.189 433.155 24.2312C433.155 22.6307 431.79 21.7254 430.242 21.7254C427.999 21.7254 426.91 22.9587 426.91 24.6248H428.091Z" fill="white"/>
<path opacity="0.6" d="M396.585 62.6505H397.955C397.696 60.581 395.992 58.8463 393.329 58.8463C390.347 58.8463 388.292 61.2202 388.292 64.4918C388.292 67.7786 390.347 70.1525 393.329 70.1525C396.007 70.1525 397.712 68.4178 397.955 66.0135H396.585C396.494 67.383 395.612 68.9351 393.329 68.9351C390.742 68.9351 389.662 66.6982 389.662 64.4918C389.662 62.3006 390.742 60.0637 393.329 60.0637C395.596 60.0637 396.388 61.6158 396.585 62.6505ZM402.672 70.1525C400.298 70.1525 398.868 68.4786 398.868 66.0591C398.868 63.6396 400.298 61.9658 402.672 61.9658C405.031 61.9658 406.461 63.6396 406.461 66.0591C406.461 68.4786 405.031 70.1525 402.672 70.1525ZM402.672 69.0873C404.407 69.0873 405.244 67.7178 405.244 66.0591C405.244 64.4005 404.407 63.031 402.672 63.031C400.922 63.031 400.085 64.4005 400.085 66.0591C400.085 67.7178 400.922 69.0873 402.672 69.0873ZM411.495 61.9658C410.171 61.9658 409.349 62.5592 408.938 63.1071H408.908V62.1788H407.69V69.9395H408.908V65.1005C408.908 63.8983 409.821 63.031 411.19 63.031C412.408 63.031 412.879 63.8222 412.879 64.8266V69.9395H414.097V64.5222C414.097 62.7418 412.91 61.9658 411.495 61.9658ZM418.927 60.1245V59.0593C418.653 58.9985 418.334 58.968 418.06 58.968C417.025 58.968 416.234 59.3789 416.234 60.9615V62.1788H415.153V63.244H416.234V69.9395H417.451V63.244H418.927V62.1788H417.451V61.0832C417.451 60.2006 417.892 60.0484 418.927 60.1245ZM420.874 60.6723C421.224 60.6723 421.635 60.4137 421.635 59.9419C421.635 59.4702 421.224 59.2115 420.874 59.2115C420.54 59.2115 420.113 59.4702 420.113 59.9419C420.113 60.4137 420.54 60.6723 420.874 60.6723ZM420.266 62.1788V69.9395H421.483V62.1788H420.266ZM426.702 61.9658C425.591 61.9658 424.967 62.6962 424.556 63.7157H424.526V62.1788H423.308V69.9395H424.526V65.8004C424.526 64.1418 425.698 62.9549 427.387 63.2288H427.417V62.0114C427.204 61.981 426.991 61.9658 426.702 61.9658ZM436.635 61.9658C435.463 61.9658 434.657 62.5745 434.124 63.3049H434.094C433.774 62.4375 433.135 61.9658 432.024 61.9658C430.853 61.9658 430.183 62.5592 429.772 63.1071H429.742V62.1788H428.524V69.9395H429.742V65.1005C429.742 63.8983 430.503 63.031 431.72 63.031C432.937 63.031 433.135 63.8222 433.135 64.8266V69.9395H434.352V65.1005C434.352 63.8983 435.113 63.031 436.331 63.031C437.548 63.031 437.746 63.8222 437.746 64.8266V69.9395H438.963V64.5222C438.963 62.894 438.202 61.9658 436.635 61.9658ZM445.339 64.157C445.339 64.9331 444.745 65.1005 443.437 65.3439C441.428 65.7244 440.119 66.1809 440.119 67.946C440.119 69.2547 441.108 70.1525 442.676 70.1525C443.954 70.1525 444.821 69.696 445.308 68.9656H445.339C445.552 69.8177 445.993 70.0155 446.723 70.0155C446.952 70.0155 447.119 70.0003 447.439 69.8938V69.0417C446.663 69.133 446.556 68.7982 446.556 68.1895V64.4157C446.556 62.544 445.232 61.9658 443.756 61.9658C441.504 61.9658 440.576 63.0918 440.5 64.5831H441.717C441.793 63.457 442.28 63.031 443.756 63.031C445.004 63.031 445.339 63.5483 445.339 64.157ZM442.797 69.0873C441.793 69.0873 441.337 68.646 441.337 67.8852C441.337 66.9569 442.037 66.5765 443.543 66.257C444.365 66.0896 445.11 65.8765 445.339 65.6483V66.9417C445.339 68.433 444.243 69.0873 442.797 69.0873ZM451.578 63.244V62.1788H450.056V59.5919H448.839V62.1788H447.697V63.244H448.839V68.0373C448.839 69.6199 449.63 70.0308 450.665 70.0308C450.984 70.0308 451.304 70.0003 451.578 69.9395V68.8743C450.543 68.9504 450.056 68.7982 450.056 67.9156V63.244H451.578ZM453.612 60.6723C453.962 60.6723 454.372 60.4137 454.372 59.9419C454.372 59.4702 453.962 59.2115 453.612 59.2115C453.277 59.2115 452.851 59.4702 452.851 59.9419C452.851 60.4137 453.277 60.6723 453.612 60.6723ZM453.003 62.1788V69.9395H454.22V62.1788H453.003ZM459.409 70.1525C457.035 70.1525 455.604 68.4786 455.604 66.0591C455.604 63.6396 457.035 61.9658 459.409 61.9658C461.767 61.9658 463.198 63.6396 463.198 66.0591C463.198 68.4786 461.767 70.1525 459.409 70.1525ZM459.409 69.0873C461.143 69.0873 461.98 67.7178 461.98 66.0591C461.98 64.4005 461.143 63.031 459.409 63.031C457.659 63.031 456.822 64.4005 456.822 66.0591C456.822 67.7178 457.659 69.0873 459.409 69.0873ZM468.231 61.9658C466.907 61.9658 466.086 62.5592 465.675 63.1071H465.644V62.1788H464.427V69.9395H465.644V65.1005C465.644 63.8983 466.557 63.031 467.927 63.031C469.144 63.031 469.616 63.8222 469.616 64.8266V69.9395H470.833V64.5222C470.833 62.7418 469.646 61.9658 468.231 61.9658Z" fill="#4F4F4F"/>
<defs>
<filter id="filter0_f_3618_17074" x="215.966" y="0.206215" width="50.5055" height="50.5016" filterUnits="userSpaceOnUse" color-interpolation-filters="sRGB">
<feFlood flood-opacity="0" result="BackgroundImageFix"/>
<feBlend mode="normal" in="SourceGraphic" in2="BackgroundImageFix" result="shape"/>
<feGaussianBlur stdDeviation="4.75529" result="effect1_foregroundBlur_3618_17074"/>
</filter>
<filter id="filter1_f_3618_17074" x="404.708" y="0.206215" width="50.5055" height="50.5016" filterUnits="userSpaceOnUse" color-interpolation-filters="sRGB">
<feFlood flood-opacity="0" result="BackgroundImageFix"/>
<feBlend mode="normal" in="SourceGraphic" in2="BackgroundImageFix" result="shape"/>
<feGaussianBlur stdDeviation="4.75529" result="effect1_foregroundBlur_3618_17074"/>
</filter>
<filter id="filter2_f_3618_17074" x="405.228" y="0.206215" width="50.5055" height="50.5016" filterUnits="userSpaceOnUse" color-interpolation-filters="sRGB">
<feFlood flood-opacity="0" result="BackgroundImageFix"/>
<feBlend mode="normal" in="SourceGraphic" in2="BackgroundImageFix" result="shape"/>
<feGaussianBlur stdDeviation="4.75529" result="effect1_foregroundBlur_3618_17074"/>
</filter>
</defs>
</svg>
