<svg width="473" height="74" viewBox="0 0 473 74" fill="none" xmlns="http://www.w3.org/2000/svg">
<rect x="38.7071" y="26.0703" width="24.555" height="24.555" rx="5.1226" transform="rotate(-45 38.7071 26.0703)" fill="white" stroke="#1567E0"/>
<path d="M56.5273 22.5224H57.4457V31.5879H56.2649V24.8052C55.7139 25.3299 55.1891 25.3299 54.3757 25.3299V24.4772C55.9632 24.4772 56.3961 23.7031 56.5273 22.5224Z" fill="#1567E0"/>
<path d="M25.4609 69.9395H29.4021C32.3998 69.9395 34.2411 68.0069 34.2411 64.507C34.2411 61.0071 32.3998 59.0593 29.4021 59.0593H25.4609V69.9395ZM26.8304 60.2767H29.4021C32.1716 60.2767 32.8715 62.3766 32.8715 64.507C32.8715 66.6374 32.1716 68.7221 29.4021 68.7221H26.8304V60.2767ZM38.9826 69.0873C37.2935 69.0873 36.4566 67.7786 36.4566 66.3787H42.589C42.589 63.6244 41.4021 61.9658 38.9674 61.9658C36.7 61.9658 35.2392 63.4723 35.2392 66.0591C35.2392 68.4938 36.6696 70.1525 39.0282 70.1525C40.9608 70.1525 42.0716 68.996 42.4672 67.5504H41.2499C41.1129 68.083 40.5347 69.0873 38.9826 69.0873ZM38.9674 63.031C40.4282 63.031 41.3716 64.0657 41.3716 65.3135H36.4566C36.4566 64.0657 37.5065 63.031 38.9674 63.031ZM43.8399 59.0593V69.9395H45.0572V59.0593H43.8399ZM47.3934 60.6723C47.7434 60.6723 48.1542 60.4137 48.1542 59.9419C48.1542 59.4702 47.7434 59.2115 47.3934 59.2115C47.0586 59.2115 46.6325 59.4702 46.6325 59.9419C46.6325 60.4137 47.0586 60.6723 47.3934 60.6723ZM46.7847 62.1788V69.9395H48.002V62.1788H46.7847ZM49.021 62.1788L51.8057 69.9395H53.1904L55.9751 62.1788H54.6512L52.5057 68.7221H52.4904L50.3449 62.1788H49.021ZM59.995 69.0873C58.3059 69.0873 57.469 67.7786 57.469 66.3787H63.6014C63.6014 63.6244 62.4145 61.9658 59.9798 61.9658C57.7125 61.9658 56.2516 63.4723 56.2516 66.0591C56.2516 68.4938 57.682 70.1525 60.0407 70.1525C61.9732 70.1525 63.084 68.996 63.4797 67.5504H62.2623C62.1254 68.083 61.5471 69.0873 59.995 69.0873ZM59.9798 63.031C61.4406 63.031 62.3841 64.0657 62.3841 65.3135H57.469C57.469 64.0657 58.519 63.031 59.9798 63.031ZM68.2 61.9658C67.0892 61.9658 66.4653 62.6962 66.0544 63.7157H66.024V62.1788H64.8066V69.9395H66.024V65.8004C66.024 64.1418 67.1957 62.9549 68.8848 63.2288H68.9152V62.0114C68.7022 61.981 68.4891 61.9658 68.2 61.9658ZM76.5963 62.1788H75.2268L72.9899 68.5091H72.9595L70.5856 62.1788H69.2161L72.153 69.3003C72.4573 70.0612 72.1378 70.7155 71.8182 71.0655C71.4073 71.5068 70.9356 71.5524 70.2661 71.4916H70.0835V72.4046C70.2813 72.4655 70.6313 72.5568 71.1182 72.5568C72.5486 72.5568 72.9443 71.4155 73.279 70.5786L76.5963 62.1788Z" fill="#4F4F4F"/>
<g style="mix-blend-mode:exclusion" opacity="0.2" filter="url(#filter0_f_3618_16816)">
<g style="mix-blend-mode:color-burn">
<rect x="223.152" y="25.457" width="25.555" height="25.555" rx="5.6226" transform="rotate(-45 223.152 25.457)" fill="#0E6FB5"/>
</g>
<path d="M241.68 21.9091C241.548 23.0899 241.116 23.8639 239.528 23.8639V24.7167C240.341 24.7167 240.866 24.7167 241.417 24.1919V30.9746H242.598V21.9091H241.68Z" fill="white"/>
</g>
<g style="mix-blend-mode:exclusion" filter="url(#filter1_f_3618_16816)">
<g style="mix-blend-mode:color-burn">
<rect x="222.891" y="25.457" width="25.555" height="25.555" rx="5.6226" transform="rotate(-45 222.891 25.457)" fill="#0E6FB5"/>
</g>
<path d="M241.418 21.9091C241.287 23.0899 240.854 23.8639 239.266 23.8639V24.7167C240.08 24.7167 240.605 24.7167 241.156 24.1919V30.9746H242.336V21.9091H241.418Z" fill="white"/>
</g>
<path d="M226.515 29.0966C224.505 27.0865 224.505 23.8276 226.515 21.8175L236.634 11.699C238.644 9.6889 241.903 9.6889 243.913 11.699L254.031 21.8175C256.041 23.8276 256.041 27.0865 254.031 29.0966L243.913 39.2151C241.903 41.2252 238.644 41.2252 236.634 39.2151L226.515 29.0966Z" fill="#1567E0" stroke="#1567E0" stroke-width="0.951058"/>
<path d="M239.03 25.084H237.849C237.849 23.2079 238.872 21.7254 241.116 21.7254C242.664 21.7254 244.002 22.7094 244.002 24.4412C244.002 27.5504 239.581 27.7341 239.016 29.8988V29.9251H243.871V30.9746H237.586C237.586 29.3347 238.623 28.049 240.289 27.0781C241.981 26.0942 242.821 25.7793 242.821 24.4543C242.821 23.6933 242.48 22.775 241.089 22.775C239.502 22.775 239.03 23.8377 239.03 25.084Z" fill="white"/>
<path opacity="0.6" d="M212.969 69.9395H214.338V65.3896H217.29C219.284 65.3896 220.821 64.507 220.821 62.2245C220.821 59.9419 219.284 59.0593 217.29 59.0593H212.969V69.9395ZM214.338 60.2767H217.443C218.797 60.2767 219.451 60.9006 219.451 62.2245C219.451 63.5483 218.797 64.1722 217.443 64.1722H214.338V60.2767ZM226.406 64.157C226.406 64.9331 225.812 65.1005 224.503 65.3439C222.495 65.7244 221.186 66.1809 221.186 67.946C221.186 69.2547 222.175 70.1525 223.743 70.1525C225.021 70.1525 225.888 69.696 226.375 68.9656H226.406C226.619 69.8177 227.06 70.0155 227.79 70.0155C228.019 70.0155 228.186 70.0003 228.505 69.8938V69.0417C227.729 69.133 227.623 68.7982 227.623 68.1895V64.4157C227.623 62.544 226.299 61.9658 224.823 61.9658C222.571 61.9658 221.643 63.0918 221.567 64.5831H222.784C222.86 63.457 223.347 63.031 224.823 63.031C226.071 63.031 226.406 63.5483 226.406 64.157ZM223.864 69.0873C222.86 69.0873 222.403 68.646 222.403 67.8852C222.403 66.9569 223.103 66.5765 224.61 66.257C225.432 66.0896 226.177 65.8765 226.406 65.6483V66.9417C226.406 68.433 225.31 69.0873 223.864 69.0873ZM235.84 62.1788H234.471L232.234 68.5091H232.203L229.829 62.1788H228.46L231.397 69.3003C231.701 70.0612 231.381 70.7155 231.062 71.0655C230.651 71.5068 230.179 71.5524 229.51 71.4916H229.327V72.4046C229.525 72.4655 229.875 72.5568 230.362 72.5568C231.792 72.5568 232.188 71.4155 232.523 70.5786L235.84 62.1788ZM244.822 61.9658C243.65 61.9658 242.844 62.5745 242.311 63.3049H242.281C241.961 62.4375 241.322 61.9658 240.211 61.9658C239.04 61.9658 238.37 62.5592 237.959 63.1071H237.929V62.1788H236.711V69.9395H237.929V65.1005C237.929 63.8983 238.69 63.031 239.907 63.031C241.124 63.031 241.322 63.8222 241.322 64.8266V69.9395H242.539V65.1005C242.539 63.8983 243.3 63.031 244.518 63.031C245.735 63.031 245.933 63.8222 245.933 64.8266V69.9395H247.15V64.5222C247.15 62.894 246.389 61.9658 244.822 61.9658ZM252.08 69.0873C250.391 69.0873 249.554 67.7786 249.554 66.3787H255.686C255.686 63.6244 254.499 61.9658 252.065 61.9658C249.797 61.9658 248.337 63.4723 248.337 66.0591C248.337 68.4938 249.767 70.1525 252.126 70.1525C254.058 70.1525 255.169 68.996 255.565 67.5504H254.347C254.21 68.083 253.632 69.0873 252.08 69.0873ZM252.065 63.031C253.526 63.031 254.469 64.0657 254.469 65.3135H249.554C249.554 64.0657 250.604 63.031 252.065 63.031ZM260.696 61.9658C259.372 61.9658 258.55 62.5592 258.139 63.1071H258.109V62.1788H256.892V69.9395H258.109V65.1005C258.109 63.8983 259.022 63.031 260.391 63.031C261.609 63.031 262.081 63.8222 262.081 64.8266V69.9395H263.298V64.5222C263.298 62.7418 262.111 61.9658 260.696 61.9658ZM268.161 63.244V62.1788H266.639V59.5919H265.422V62.1788H264.28V63.244H265.422V68.0373C265.422 69.6199 266.213 70.0308 267.248 70.0308C267.567 70.0308 267.887 70.0003 268.161 69.9395V68.8743C267.126 68.9504 266.639 68.7982 266.639 67.9156V63.244H268.161Z" fill="#4F4F4F"/>
<g style="mix-blend-mode:exclusion" opacity="0.2" filter="url(#filter2_f_3618_16816)">
<g style="mix-blend-mode:color-burn">
<rect x="412.414" y="25.457" width="25.555" height="25.555" rx="5.6226" transform="rotate(-45 412.414 25.457)" fill="#0E6FB5"/>
</g>
<path d="M430.941 21.9091C430.81 23.0899 430.377 23.8639 428.79 23.8639V24.7167C429.603 24.7167 430.128 24.7167 430.679 24.1919V30.9746H431.86V21.9091H430.941Z" fill="white"/>
</g>
<rect x="413.087" y="25.457" width="24.6039" height="24.6039" rx="5.14707" transform="rotate(-45 413.087 25.457)" fill="white" fill-opacity="0.6" stroke="#1567E0" stroke-width="0.951058"/>
<path d="M428.094 24.6248C428.094 23.7327 428.475 22.775 430.246 22.775C431.479 22.775 431.978 23.4966 431.978 24.2312C431.978 25.2808 431.269 25.7137 430.338 25.7137H429.42V26.7633H430.39C431.269 26.7633 432.306 27.0126 432.306 28.4294C432.306 29.5184 431.742 30.1087 430.18 30.1087C428.462 30.1087 427.858 29.2166 427.858 27.9047H426.678C426.678 29.9513 427.963 31.1583 430.272 31.1583C432.214 31.1583 433.487 30.2137 433.487 28.4294C433.487 27.3668 433.054 26.5403 431.768 26.186V26.1598C432.686 25.7924 433.159 25.189 433.159 24.2312C433.159 22.6307 431.794 21.7254 430.246 21.7254C428.003 21.7254 426.914 22.9587 426.914 24.6248H428.094Z" fill="#1567E0"/>
<path opacity="0.6" d="M396.589 62.6505H397.959C397.7 60.581 395.996 58.8463 393.333 58.8463C390.35 58.8463 388.296 61.2202 388.296 64.4918C388.296 67.7786 390.35 70.1525 393.333 70.1525C396.011 70.1525 397.715 68.4178 397.959 66.0135H396.589C396.498 67.383 395.616 68.9351 393.333 68.9351C390.746 68.9351 389.666 66.6982 389.666 64.4918C389.666 62.3006 390.746 60.0637 393.333 60.0637C395.6 60.0637 396.392 61.6158 396.589 62.6505ZM402.676 70.1525C400.302 70.1525 398.872 68.4786 398.872 66.0591C398.872 63.6396 400.302 61.9658 402.676 61.9658C405.035 61.9658 406.465 63.6396 406.465 66.0591C406.465 68.4786 405.035 70.1525 402.676 70.1525ZM402.676 69.0873C404.411 69.0873 405.248 67.7178 405.248 66.0591C405.248 64.4005 404.411 63.031 402.676 63.031C400.926 63.031 400.089 64.4005 400.089 66.0591C400.089 67.7178 400.926 69.0873 402.676 69.0873ZM411.498 61.9658C410.175 61.9658 409.353 62.5592 408.942 63.1071H408.912V62.1788H407.694V69.9395H408.912V65.1005C408.912 63.8983 409.825 63.031 411.194 63.031C412.411 63.031 412.883 63.8222 412.883 64.8266V69.9395H414.101V64.5222C414.101 62.7418 412.914 61.9658 411.498 61.9658ZM418.931 60.1245V59.0593C418.657 58.9985 418.337 58.968 418.064 58.968C417.029 58.968 416.238 59.3789 416.238 60.9615V62.1788H415.157V63.244H416.238V69.9395H417.455V63.244H418.931V62.1788H417.455V61.0832C417.455 60.2006 417.896 60.0484 418.931 60.1245ZM420.878 60.6723C421.228 60.6723 421.639 60.4137 421.639 59.9419C421.639 59.4702 421.228 59.2115 420.878 59.2115C420.543 59.2115 420.117 59.4702 420.117 59.9419C420.117 60.4137 420.543 60.6723 420.878 60.6723ZM420.27 62.1788V69.9395H421.487V62.1788H420.27ZM426.706 61.9658C425.595 61.9658 424.971 62.6962 424.56 63.7157H424.53V62.1788H423.312V69.9395H424.53V65.8004C424.53 64.1418 425.701 62.9549 427.39 63.2288H427.421V62.0114C427.208 61.981 426.995 61.9658 426.706 61.9658ZM436.639 61.9658C435.467 61.9658 434.661 62.5745 434.128 63.3049H434.098C433.778 62.4375 433.139 61.9658 432.028 61.9658C430.857 61.9658 430.187 62.5592 429.776 63.1071H429.746V62.1788H428.528V69.9395H429.746V65.1005C429.746 63.8983 430.507 63.031 431.724 63.031C432.941 63.031 433.139 63.8222 433.139 64.8266V69.9395H434.356V65.1005C434.356 63.8983 435.117 63.031 436.335 63.031C437.552 63.031 437.75 63.8222 437.75 64.8266V69.9395H438.967V64.5222C438.967 62.894 438.206 61.9658 436.639 61.9658ZM445.343 64.157C445.343 64.9331 444.749 65.1005 443.44 65.3439C441.432 65.7244 440.123 66.1809 440.123 67.946C440.123 69.2547 441.112 70.1525 442.68 70.1525C443.958 70.1525 444.825 69.696 445.312 68.9656H445.343C445.556 69.8177 445.997 70.0155 446.727 70.0155C446.956 70.0155 447.123 70.0003 447.442 69.8938V69.0417C446.666 69.133 446.56 68.7982 446.56 68.1895V64.4157C446.56 62.544 445.236 61.9658 443.76 61.9658C441.508 61.9658 440.58 63.0918 440.504 64.5831H441.721C441.797 63.457 442.284 63.031 443.76 63.031C445.008 63.031 445.343 63.5483 445.343 64.157ZM442.801 69.0873C441.797 69.0873 441.341 68.646 441.341 67.8852C441.341 66.9569 442.04 66.5765 443.547 66.257C444.369 66.0896 445.114 65.8765 445.343 65.6483V66.9417C445.343 68.433 444.247 69.0873 442.801 69.0873ZM451.581 63.244V62.1788H450.06V59.5919H448.842V62.1788H447.701V63.244H448.842V68.0373C448.842 69.6199 449.634 70.0308 450.668 70.0308C450.988 70.0308 451.308 70.0003 451.581 69.9395V68.8743C450.547 68.9504 450.06 68.7982 450.06 67.9156V63.244H451.581ZM453.615 60.6723C453.965 60.6723 454.376 60.4137 454.376 59.9419C454.376 59.4702 453.965 59.2115 453.615 59.2115C453.281 59.2115 452.855 59.4702 452.855 59.9419C452.855 60.4137 453.281 60.6723 453.615 60.6723ZM453.007 62.1788V69.9395H454.224V62.1788H453.007ZM459.413 70.1525C457.039 70.1525 455.608 68.4786 455.608 66.0591C455.608 63.6396 457.039 61.9658 459.413 61.9658C461.771 61.9658 463.202 63.6396 463.202 66.0591C463.202 68.4786 461.771 70.1525 459.413 70.1525ZM459.413 69.0873C461.147 69.0873 461.984 67.7178 461.984 66.0591C461.984 64.4005 461.147 63.031 459.413 63.031C457.663 63.031 456.826 64.4005 456.826 66.0591C456.826 67.7178 457.663 69.0873 459.413 69.0873ZM468.235 61.9658C466.911 61.9658 466.089 62.5592 465.679 63.1071H465.648V62.1788H464.431V69.9395H465.648V65.1005C465.648 63.8983 466.561 63.031 467.931 63.031C469.148 63.031 469.62 63.8222 469.62 64.8266V69.9395H470.837V64.5222C470.837 62.7418 469.65 61.9658 468.235 61.9658Z" fill="#4F4F4F"/>
<defs>
<filter id="filter0_f_3618_16816" x="215.97" y="0.206215" width="50.5055" height="50.5016" filterUnits="userSpaceOnUse" color-interpolation-filters="sRGB">
<feFlood flood-opacity="0" result="BackgroundImageFix"/>
<feBlend mode="normal" in="SourceGraphic" in2="BackgroundImageFix" result="shape"/>
<feGaussianBlur stdDeviation="4.75529" result="effect1_foregroundBlur_3618_16816"/>
</filter>
<filter id="filter1_f_3618_16816" x="215.708" y="0.206215" width="50.5055" height="50.5016" filterUnits="userSpaceOnUse" color-interpolation-filters="sRGB">
<feFlood flood-opacity="0" result="BackgroundImageFix"/>
<feBlend mode="normal" in="SourceGraphic" in2="BackgroundImageFix" result="shape"/>
<feGaussianBlur stdDeviation="4.75529" result="effect1_foregroundBlur_3618_16816"/>
</filter>
<filter id="filter2_f_3618_16816" x="405.232" y="0.206215" width="50.5055" height="50.5016" filterUnits="userSpaceOnUse" color-interpolation-filters="sRGB">
<feFlood flood-opacity="0" result="BackgroundImageFix"/>
<feBlend mode="normal" in="SourceGraphic" in2="BackgroundImageFix" result="shape"/>
<feGaussianBlur stdDeviation="4.75529" result="effect1_foregroundBlur_3618_16816"/>
</filter>
</defs>
</svg>
