<svg width="473" height="67" viewBox="0 0 473 67" fill="none" xmlns="http://www.w3.org/2000/svg">
<rect x="33.8906" y="18.457" width="25.555" height="25.555" rx="5.6226" transform="rotate(-45 33.8906 18.457)" fill="#1567E0"/>
<path d="M52.418 14.9091H53.3363V23.9746H52.1556V17.1919C51.6046 17.7167 51.0798 17.7167 50.2664 17.7167V16.8639C51.8538 16.8639 52.2868 16.0899 52.418 14.9091Z" fill="white"/>
<path d="M25.4609 62.9395H29.4021C32.3998 62.9395 34.2411 61.0069 34.2411 57.507C34.2411 54.0071 32.3998 52.0593 29.4021 52.0593H25.4609V62.9395ZM26.8304 53.2767H29.4021C32.1716 53.2767 32.8715 55.3766 32.8715 57.507C32.8715 59.6374 32.1716 61.7221 29.4021 61.7221H26.8304V53.2767ZM38.9826 62.0873C37.2935 62.0873 36.4566 60.7786 36.4566 59.3787H42.589C42.589 56.6244 41.4021 54.9658 38.9674 54.9658C36.7 54.9658 35.2392 56.4723 35.2392 59.0591C35.2392 61.4938 36.6696 63.1525 39.0282 63.1525C40.9608 63.1525 42.0716 61.996 42.4672 60.5504H41.2499C41.1129 61.083 40.5347 62.0873 38.9826 62.0873ZM38.9674 56.031C40.4282 56.031 41.3716 57.0657 41.3716 58.3135H36.4566C36.4566 57.0657 37.5065 56.031 38.9674 56.031ZM43.8399 52.0593V62.9395H45.0572V52.0593H43.8399ZM47.3934 53.6723C47.7434 53.6723 48.1542 53.4137 48.1542 52.9419C48.1542 52.4702 47.7434 52.2115 47.3934 52.2115C47.0586 52.2115 46.6325 52.4702 46.6325 52.9419C46.6325 53.4137 47.0586 53.6723 47.3934 53.6723ZM46.7847 55.1788V62.9395H48.002V55.1788H46.7847ZM49.021 55.1788L51.8057 62.9395H53.1904L55.9751 55.1788H54.6512L52.5057 61.7221H52.4904L50.3449 55.1788H49.021ZM59.995 62.0873C58.3059 62.0873 57.469 60.7786 57.469 59.3787H63.6014C63.6014 56.6244 62.4145 54.9658 59.9798 54.9658C57.7125 54.9658 56.2516 56.4723 56.2516 59.0591C56.2516 61.4938 57.682 63.1525 60.0407 63.1525C61.9732 63.1525 63.084 61.996 63.4797 60.5504H62.2623C62.1254 61.083 61.5471 62.0873 59.995 62.0873ZM59.9798 56.031C61.4406 56.031 62.3841 57.0657 62.3841 58.3135H57.469C57.469 57.0657 58.519 56.031 59.9798 56.031ZM68.2 54.9658C67.0892 54.9658 66.4653 55.6962 66.0544 56.7157H66.024V55.1788H64.8066V62.9395H66.024V58.8004C66.024 57.1418 67.1957 55.9549 68.8848 56.2288H68.9152V55.0114C68.7022 54.981 68.4891 54.9658 68.2 54.9658ZM76.5963 55.1788H75.2268L72.9899 61.5091H72.9595L70.5856 55.1788H69.2161L72.153 62.3003C72.4573 63.0612 72.1378 63.7155 71.8182 64.0655C71.4073 64.5068 70.9356 64.5524 70.2661 64.4916H70.0835V65.4046C70.2813 65.4655 70.6313 65.5568 71.1182 65.5568C72.5486 65.5568 72.9443 64.4155 73.279 63.5786L76.5963 55.1788Z" fill="#4F4F4F"/>
<g style="mix-blend-mode:exclusion" opacity="0.2" filter="url(#filter0_f_3618_16624)">
<path d="M241.68 14.9091C241.548 16.0899 241.116 16.8639 239.528 16.8639V17.7167C240.341 17.7167 240.866 17.7167 241.417 17.1919V23.9746H242.598V14.9091H241.68Z" fill="white"/>
</g>
<path d="M226.179 22.4328C223.983 20.237 223.983 16.677 226.179 14.4813L236.297 4.3627C238.493 2.16694 242.053 2.16694 244.249 4.3627L254.368 14.4813C256.563 16.677 256.563 20.237 254.368 22.4328L244.249 32.5514C242.053 34.7471 238.493 34.7471 236.297 32.5514L226.179 22.4328Z" fill="white" fill-opacity="0.6"/>
<path d="M226.515 22.0966C224.505 20.0865 224.505 16.8276 226.515 14.8175L236.634 4.69895C238.644 2.6889 241.903 2.6889 243.913 4.69895L254.031 14.8175C256.041 16.8276 256.041 20.0865 254.031 22.0966L243.913 32.2151C241.903 34.2252 238.644 34.2252 236.634 32.2151L226.515 22.0966Z" stroke="#1567E0" stroke-width="0.951058"/>
<path d="M239.03 18.084C239.03 16.8377 239.502 15.775 241.089 15.775C242.48 15.775 242.821 16.6933 242.821 17.4543C242.821 18.7793 241.981 19.0942 240.289 20.0781C238.623 21.049 237.586 22.3347 237.586 23.9746H243.871V22.9251H239.016V22.8988C239.581 20.7341 244.002 20.5504 244.002 17.4412C244.002 15.7094 242.664 14.7254 241.116 14.7254C238.872 14.7254 237.849 16.2079 237.849 18.084H239.03Z" fill="#1567E0"/>
<path opacity="0.6" d="M212.969 62.9395H214.338V58.3896H217.29C219.284 58.3896 220.821 57.507 220.821 55.2245C220.821 52.9419 219.284 52.0593 217.29 52.0593H212.969V62.9395ZM214.338 53.2767H217.443C218.797 53.2767 219.451 53.9006 219.451 55.2245C219.451 56.5483 218.797 57.1722 217.443 57.1722H214.338V53.2767ZM226.406 57.157C226.406 57.9331 225.812 58.1005 224.503 58.3439C222.495 58.7244 221.186 59.1809 221.186 60.946C221.186 62.2547 222.175 63.1525 223.743 63.1525C225.021 63.1525 225.888 62.696 226.375 61.9656H226.406C226.619 62.8177 227.06 63.0155 227.79 63.0155C228.019 63.0155 228.186 63.0003 228.505 62.8938V62.0417C227.729 62.133 227.623 61.7982 227.623 61.1895V57.4157C227.623 55.544 226.299 54.9658 224.823 54.9658C222.571 54.9658 221.643 56.0918 221.567 57.5831H222.784C222.86 56.457 223.347 56.031 224.823 56.031C226.071 56.031 226.406 56.5483 226.406 57.157ZM223.864 62.0873C222.86 62.0873 222.403 61.646 222.403 60.8852C222.403 59.9569 223.103 59.5765 224.61 59.257C225.432 59.0896 226.177 58.8765 226.406 58.6483V59.9417C226.406 61.433 225.31 62.0873 223.864 62.0873ZM235.84 55.1788H234.471L232.234 61.5091H232.203L229.829 55.1788H228.46L231.397 62.3003C231.701 63.0612 231.381 63.7155 231.062 64.0655C230.651 64.5068 230.179 64.5524 229.51 64.4916H229.327V65.4046C229.525 65.4655 229.875 65.5568 230.362 65.5568C231.792 65.5568 232.188 64.4155 232.523 63.5786L235.84 55.1788ZM244.822 54.9658C243.65 54.9658 242.844 55.5745 242.311 56.3049H242.281C241.961 55.4375 241.322 54.9658 240.211 54.9658C239.04 54.9658 238.37 55.5592 237.959 56.1071H237.929V55.1788H236.711V62.9395H237.929V58.1005C237.929 56.8983 238.69 56.031 239.907 56.031C241.124 56.031 241.322 56.8222 241.322 57.8266V62.9395H242.539V58.1005C242.539 56.8983 243.3 56.031 244.518 56.031C245.735 56.031 245.933 56.8222 245.933 57.8266V62.9395H247.15V57.5222C247.15 55.894 246.389 54.9658 244.822 54.9658ZM252.08 62.0873C250.391 62.0873 249.554 60.7786 249.554 59.3787H255.686C255.686 56.6244 254.499 54.9658 252.065 54.9658C249.797 54.9658 248.337 56.4723 248.337 59.0591C248.337 61.4938 249.767 63.1525 252.126 63.1525C254.058 63.1525 255.169 61.996 255.565 60.5504H254.347C254.21 61.083 253.632 62.0873 252.08 62.0873ZM252.065 56.031C253.526 56.031 254.469 57.0657 254.469 58.3135H249.554C249.554 57.0657 250.604 56.031 252.065 56.031ZM260.696 54.9658C259.372 54.9658 258.55 55.5592 258.139 56.1071H258.109V55.1788H256.892V62.9395H258.109V58.1005C258.109 56.8983 259.022 56.031 260.391 56.031C261.609 56.031 262.081 56.8222 262.081 57.8266V62.9395H263.298V57.5222C263.298 55.7418 262.111 54.9658 260.696 54.9658ZM268.161 56.244V55.1788H266.639V52.5919H265.422V55.1788H264.28V56.244H265.422V61.0373C265.422 62.6199 266.213 63.0308 267.248 63.0308C267.567 63.0308 267.887 63.0003 268.161 62.9395V61.8743C267.126 61.9504 266.639 61.7982 266.639 60.9156V56.244H268.161Z" fill="#4F4F4F"/>
<rect x="413.087" y="18.457" width="24.6039" height="24.6039" rx="5.14707" transform="rotate(-45 413.087 18.457)" fill="white" fill-opacity="0.6" stroke="#1567E0" stroke-width="0.951058"/>
<path d="M428.094 17.6248C428.094 16.7327 428.475 15.775 430.246 15.775C431.479 15.775 431.978 16.4966 431.978 17.2312C431.978 18.2808 431.269 18.7137 430.338 18.7137H429.42V19.7633H430.39C431.269 19.7633 432.306 20.0126 432.306 21.4294C432.306 22.5184 431.742 23.1087 430.18 23.1087C428.462 23.1087 427.858 22.2166 427.858 20.9047H426.678C426.678 22.9513 427.963 24.1583 430.272 24.1583C432.214 24.1583 433.487 23.2137 433.487 21.4294C433.487 20.3668 433.054 19.5403 431.768 19.186V19.1598C432.686 18.7924 433.159 18.189 433.159 17.2312C433.159 15.6307 431.794 14.7254 430.246 14.7254C428.003 14.7254 426.914 15.9587 426.914 17.6248H428.094Z" fill="#1567E0"/>
<path opacity="0.6" d="M396.589 55.6505H397.959C397.7 53.581 395.996 51.8463 393.333 51.8463C390.35 51.8463 388.296 54.2202 388.296 57.4918C388.296 60.7786 390.35 63.1525 393.333 63.1525C396.011 63.1525 397.715 61.4178 397.959 59.0135H396.589C396.498 60.383 395.616 61.9351 393.333 61.9351C390.746 61.9351 389.666 59.6982 389.666 57.4918C389.666 55.3006 390.746 53.0637 393.333 53.0637C395.6 53.0637 396.392 54.6158 396.589 55.6505ZM402.676 63.1525C400.302 63.1525 398.872 61.4786 398.872 59.0591C398.872 56.6396 400.302 54.9658 402.676 54.9658C405.035 54.9658 406.465 56.6396 406.465 59.0591C406.465 61.4786 405.035 63.1525 402.676 63.1525ZM402.676 62.0873C404.411 62.0873 405.248 60.7178 405.248 59.0591C405.248 57.4005 404.411 56.031 402.676 56.031C400.926 56.031 400.089 57.4005 400.089 59.0591C400.089 60.7178 400.926 62.0873 402.676 62.0873ZM411.498 54.9658C410.175 54.9658 409.353 55.5592 408.942 56.1071H408.912V55.1788H407.694V62.9395H408.912V58.1005C408.912 56.8983 409.825 56.031 411.194 56.031C412.411 56.031 412.883 56.8222 412.883 57.8266V62.9395H414.101V57.5222C414.101 55.7418 412.914 54.9658 411.498 54.9658ZM418.931 53.1245V52.0593C418.657 51.9985 418.337 51.968 418.064 51.968C417.029 51.968 416.238 52.3789 416.238 53.9615V55.1788H415.157V56.244H416.238V62.9395H417.455V56.244H418.931V55.1788H417.455V54.0832C417.455 53.2006 417.896 53.0484 418.931 53.1245ZM420.878 53.6723C421.228 53.6723 421.639 53.4137 421.639 52.9419C421.639 52.4702 421.228 52.2115 420.878 52.2115C420.543 52.2115 420.117 52.4702 420.117 52.9419C420.117 53.4137 420.543 53.6723 420.878 53.6723ZM420.27 55.1788V62.9395H421.487V55.1788H420.27ZM426.706 54.9658C425.595 54.9658 424.971 55.6962 424.56 56.7157H424.53V55.1788H423.312V62.9395H424.53V58.8004C424.53 57.1418 425.701 55.9549 427.39 56.2288H427.421V55.0114C427.208 54.981 426.995 54.9658 426.706 54.9658ZM436.639 54.9658C435.467 54.9658 434.661 55.5745 434.128 56.3049H434.098C433.778 55.4375 433.139 54.9658 432.028 54.9658C430.857 54.9658 430.187 55.5592 429.776 56.1071H429.746V55.1788H428.528V62.9395H429.746V58.1005C429.746 56.8983 430.507 56.031 431.724 56.031C432.941 56.031 433.139 56.8222 433.139 57.8266V62.9395H434.356V58.1005C434.356 56.8983 435.117 56.031 436.335 56.031C437.552 56.031 437.75 56.8222 437.75 57.8266V62.9395H438.967V57.5222C438.967 55.894 438.206 54.9658 436.639 54.9658ZM445.343 57.157C445.343 57.9331 444.749 58.1005 443.44 58.3439C441.432 58.7244 440.123 59.1809 440.123 60.946C440.123 62.2547 441.112 63.1525 442.68 63.1525C443.958 63.1525 444.825 62.696 445.312 61.9656H445.343C445.556 62.8177 445.997 63.0155 446.727 63.0155C446.956 63.0155 447.123 63.0003 447.442 62.8938V62.0417C446.666 62.133 446.56 61.7982 446.56 61.1895V57.4157C446.56 55.544 445.236 54.9658 443.76 54.9658C441.508 54.9658 440.58 56.0918 440.504 57.5831H441.721C441.797 56.457 442.284 56.031 443.76 56.031C445.008 56.031 445.343 56.5483 445.343 57.157ZM442.801 62.0873C441.797 62.0873 441.341 61.646 441.341 60.8852C441.341 59.9569 442.04 59.5765 443.547 59.257C444.369 59.0896 445.114 58.8765 445.343 58.6483V59.9417C445.343 61.433 444.247 62.0873 442.801 62.0873ZM451.581 56.244V55.1788H450.06V52.5919H448.842V55.1788H447.701V56.244H448.842V61.0373C448.842 62.6199 449.634 63.0308 450.668 63.0308C450.988 63.0308 451.308 63.0003 451.581 62.9395V61.8743C450.547 61.9504 450.06 61.7982 450.06 60.9156V56.244H451.581ZM453.615 53.6723C453.965 53.6723 454.376 53.4137 454.376 52.9419C454.376 52.4702 453.965 52.2115 453.615 52.2115C453.281 52.2115 452.855 52.4702 452.855 52.9419C452.855 53.4137 453.281 53.6723 453.615 53.6723ZM453.007 55.1788V62.9395H454.224V55.1788H453.007ZM459.413 63.1525C457.039 63.1525 455.608 61.4786 455.608 59.0591C455.608 56.6396 457.039 54.9658 459.413 54.9658C461.771 54.9658 463.202 56.6396 463.202 59.0591C463.202 61.4786 461.771 63.1525 459.413 63.1525ZM459.413 62.0873C461.147 62.0873 461.984 60.7178 461.984 59.0591C461.984 57.4005 461.147 56.031 459.413 56.031C457.663 56.031 456.826 57.4005 456.826 59.0591C456.826 60.7178 457.663 62.0873 459.413 62.0873ZM468.235 54.9658C466.911 54.9658 466.089 55.5592 465.679 56.1071H465.648V55.1788H464.431V62.9395H465.648V58.1005C465.648 56.8983 466.561 56.031 467.931 56.031C469.148 56.031 469.62 56.8222 469.62 57.8266V62.9395H470.837V57.5222C470.837 55.7418 469.65 54.9658 468.235 54.9658Z" fill="#4F4F4F"/>
<defs>
<filter id="filter0_f_3618_16624" x="230.017" y="5.39762" width="22.0915" height="28.0876" filterUnits="userSpaceOnUse" color-interpolation-filters="sRGB">
<feFlood flood-opacity="0" result="BackgroundImageFix"/>
<feBlend mode="normal" in="SourceGraphic" in2="BackgroundImageFix" result="shape"/>
<feGaussianBlur stdDeviation="4.75529" result="effect1_foregroundBlur_3618_16624"/>
</filter>
</defs>
</svg>
