<svg width="69" height="69" viewBox="0 0 69 69" fill="none" xmlns="http://www.w3.org/2000/svg">
<path d="M34.5 69C53.5538 69 69 53.5538 69 34.5C69 15.4462 53.5538 0 34.5 0C15.4462 0 0 15.4462 0 34.5C0 53.5538 15.4462 69 34.5 69Z" fill="#1567E0"/>
<path d="M25.6836 50.0626L43.4233 67.8023C58.1158 63.8844 68.9991 50.4979 68.9991 34.4995V33.52L55.0685 20.6777L25.6836 50.0626Z" fill="#1567E0"/>
<path d="M35.3698 42.2276C36.8935 43.7513 36.8935 46.3633 35.3698 47.8869L32.2137 51.0431C30.69 52.5668 28.078 52.5668 26.5544 51.0431L12.7326 37.1125C11.2089 35.5888 11.2089 32.9769 12.7326 31.4532L15.8887 28.297C17.4124 26.7734 20.0244 26.7734 21.548 28.297L35.3698 42.2276Z" fill="white"/>
<path d="M47.4492 18.1759C48.9729 16.6523 51.5849 16.6523 53.1085 18.1759L56.2647 21.3321C57.7884 22.8558 57.7884 25.4677 56.2647 26.9914L32.3215 50.8258C30.7978 52.3494 28.1858 52.3494 26.6622 50.8258L23.506 47.6696C21.9824 46.146 21.9824 43.534 23.506 42.0103L47.4492 18.1759Z" fill="white"/>
</svg>
