<svg width="122" height="54" viewBox="0 0 122 54" fill="none" xmlns="http://www.w3.org/2000/svg">
<path d="M68.4977 18.9048C65.2883 18.9048 62.5626 20.004 60.7161 22.2463V19.1686H55.4844V51.1766H60.9799V39.7891C62.8703 41.9435 65.5082 42.9547 68.4977 42.9547C75.3561 42.9547 80.4119 38.2063 80.4119 30.9078C80.4119 23.6532 75.3561 18.9048 68.4977 18.9048ZM67.8822 38.2503C63.9255 38.2503 60.8919 35.3924 60.8919 30.9078C60.8919 26.4231 63.9255 23.5653 67.8822 23.5653C71.839 23.5653 74.8285 26.4231 74.8285 30.9078C74.8285 35.3924 71.839 38.2503 67.8822 38.2503ZM94.2406 18.9048C91.251 18.9048 88.6132 19.916 86.7228 22.0264V10.0234H81.2273V42.647H86.459V39.6133C88.3055 41.8556 91.0312 42.9547 94.2406 42.9547C101.099 42.9547 106.155 38.2063 106.155 30.9078C106.155 23.6093 101.099 18.9048 94.2406 18.9048ZM93.6251 38.2503C89.6683 38.2503 86.6348 35.3924 86.6348 30.9078C86.6348 26.4231 89.6683 23.5653 93.6251 23.5653C97.5819 23.5653 100.571 26.4231 100.571 30.9078C100.571 35.3924 97.5819 38.2503 93.6251 38.2503ZM112.202 22.598V19.1686H106.97V42.647H112.466V31.2595C112.466 26.4671 115.104 24.005 119.28 24.005C119.676 24.005 120.072 24.0489 120.555 24.1369V18.9048C116.642 18.9048 113.785 20.1359 112.202 22.598Z" fill="white"/>
<path d="M64.6016 48.5836H66.7822V48.0999H65.1731V45.5059H64.6016V48.5836ZM68.4425 48.5836H69.014V45.5059H68.4425V48.5836ZM73.3018 45.9851V45.5059H71.0553V48.5836H71.6268V47.4053H73.1128V46.9216H71.6268V45.9851H73.3018ZM75.6352 48.1043V47.2558H77.1212V46.7853H75.6352V45.9851H77.3102V45.5059H75.0637V48.5836H77.3718V48.1043H75.6352ZM82.596 48.6275C83.4401 48.6275 83.8402 48.2055 83.8402 47.713C83.8402 46.5831 82.0157 47.0096 82.0157 46.3544C82.0157 46.1214 82.2091 45.9368 82.6839 45.9368C82.9521 45.9368 83.2555 46.0159 83.5324 46.1786L83.7127 45.7345C83.4445 45.5586 83.0576 45.4619 82.6883 45.4619C81.8442 45.4619 81.4485 45.884 81.4485 46.3808C81.4485 47.524 83.2775 47.0887 83.2775 47.7526C83.2775 47.9812 83.0752 48.1527 82.596 48.1527C82.2179 48.1527 81.8266 48.012 81.5804 47.8142L81.3826 48.2582C81.6376 48.4781 82.1168 48.6275 82.596 48.6275ZM87.0403 48.6275C87.5459 48.6275 87.9768 48.4473 88.2625 48.1131L87.8932 47.7614C87.669 48.0076 87.392 48.1263 87.0711 48.1263C86.4336 48.1263 85.972 47.6779 85.972 47.0447C85.972 46.4116 86.4336 45.9631 87.0711 45.9631C87.392 45.9631 87.669 46.0818 87.8932 46.3237L88.2625 45.9763C87.9768 45.6422 87.5459 45.4619 87.0447 45.4619C86.0995 45.4619 85.3961 46.1258 85.3961 47.0447C85.3961 47.9636 86.0995 48.6275 87.0403 48.6275ZM90.0191 48.5836H90.5906V45.5059H90.0191V48.5836ZM93.2036 48.1043V47.2558H94.6896V46.7853H93.2036V45.9851H94.8787V45.5059H92.6321V48.5836H94.9402V48.1043H93.2036ZM98.9537 45.5059V47.5899L97.2567 45.5059H96.7863V48.5836H97.3534V46.4995L99.0504 48.5836H99.5208V45.5059H98.9537ZM102.979 48.6275C103.484 48.6275 103.915 48.4473 104.201 48.1131L103.832 47.7614C103.607 48.0076 103.331 48.1263 103.01 48.1263C102.372 48.1263 101.91 47.6779 101.91 47.0447C101.91 46.4116 102.372 45.9631 103.01 45.9631C103.331 45.9631 103.607 46.0818 103.832 46.3237L104.201 45.9763C103.915 45.6422 103.484 45.4619 102.983 45.4619C102.038 45.4619 101.335 46.1258 101.335 47.0447C101.335 47.9636 102.038 48.6275 102.979 48.6275ZM106.529 48.1043V47.2558H108.015V46.7853H106.529V45.9851H108.204V45.5059H105.958V48.5836H108.266V48.1043H106.529ZM111.066 48.6275C111.91 48.6275 112.31 48.2055 112.31 47.713C112.31 46.5831 110.486 47.0096 110.486 46.3544C110.486 46.1214 110.679 45.9368 111.154 45.9368C111.422 45.9368 111.725 46.0159 112.002 46.1786L112.183 45.7345C111.914 45.5586 111.528 45.4619 111.158 45.4619C110.314 45.4619 109.919 45.884 109.919 46.3808C109.919 47.524 111.747 47.0887 111.747 47.7526C111.747 47.9812 111.545 48.1527 111.066 48.1527C110.688 48.1527 110.297 48.012 110.05 47.8142L109.853 48.2582C110.108 48.4781 110.587 48.6275 111.066 48.6275Z" fill="white"/>
<mask id="mask0_4146_15470" style="mask-type:luminance" maskUnits="userSpaceOnUse" x="0" y="10" width="48" height="42">
<path d="M47.2613 10.332H0V51.0651H47.2613V10.332Z" fill="white"/>
</mask>
<g mask="url(#mask0_4146_15470)">
<path d="M5.04192 33.9644C7.82649 33.9644 10.0838 31.7069 10.0838 28.922C10.0838 26.1374 7.82649 23.8799 5.04192 23.8799C2.25735 23.8799 0 26.1374 0 28.922C0 31.7069 2.25735 33.9644 5.04192 33.9644Z" fill="white"/>
<path d="M17.8885 34.6994C19.5831 34.6994 20.9567 33.3255 20.9567 31.631C20.9567 29.9363 19.5831 28.5625 17.8885 28.5625C16.194 28.5625 14.8203 29.9363 14.8203 31.631C14.8203 33.3255 16.194 34.6994 17.8885 34.6994Z" fill="white"/>
<path d="M20.8136 23.8976C24.5594 23.8976 27.596 20.8609 27.596 17.1149C27.596 13.3688 24.5594 10.332 20.8136 10.332C17.0678 10.332 14.0312 13.3688 14.0312 17.1149C14.0312 20.8609 17.0678 23.8976 20.8136 23.8976Z" fill="white"/>
<path d="M14.8214 51.0648C18.5672 51.0648 21.6038 48.028 21.6038 44.2818C21.6038 40.5358 18.5672 37.499 14.8214 37.499C11.0756 37.499 8.03906 40.5358 8.03906 44.2818C8.03906 48.028 11.0756 51.0648 14.8214 51.0648Z" fill="white"/>
<path d="M35.8514 47.3509C42.1638 47.3509 47.2809 42.2334 47.2809 35.9206C47.2809 29.6078 42.1638 24.4902 35.8514 24.4902C29.5391 24.4902 24.4219 29.6078 24.4219 35.9206C24.4219 42.2334 29.5391 47.3509 35.8514 47.3509Z" fill="white"/>
</g>
</svg>
